<?xml version="1.0" encoding="UTF-8" standalone="no"?>
<!-- Created with Inkscape (http://www.inkscape.org/) -->

<svg
   width="3.5883801mm"
   height="3.5026717mm"
   viewBox="0 0 3.5883801 3.5026717"
   version="1.1"
   id="svg534"
   inkscape:version="1.2.1 (9c6d41e410, 2022-07-14)"
   sodipodi:docname="github.svg"
   xmlns:inkscape="http://www.inkscape.org/namespaces/inkscape"
   xmlns:sodipodi="http://sodipodi.sourceforge.net/DTD/sodipodi-0.dtd"
   xmlns="http://www.w3.org/2000/svg"
   xmlns:svg="http://www.w3.org/2000/svg">
  <sodipodi:namedview
     id="namedview536"
     pagecolor="#ffffff"
     bordercolor="#666666"
     borderopacity="1.0"
     inkscape:showpageshadow="2"
     inkscape:pageopacity="0.0"
     inkscape:pagecheckerboard="0"
     inkscape:deskcolor="#d1d1d1"
     inkscape:document-units="mm"
     showgrid="false"
     inkscape:zoom="0.70733726"
     inkscape:cx="-203.5804"
     inkscape:cy="76.342649"
     inkscape:window-width="1920"
     inkscape:window-height="1030"
     inkscape:window-x="0"
     inkscape:window-y="0"
     inkscape:window-maximized="1"
     inkscape:current-layer="layer1" />
  <defs
     id="defs531" />
  <g
     inkscape:label="Layer 1"
     inkscape:groupmode="layer"
     id="layer1"
     transform="translate(-159.04959,-128.42026)">
    <path
       d="m 160.25064,131.23464 c 0,0 -0.007,-0.007 -0.0146,-0.0145 -0.007,0 -0.0145,-0.007 -0.0288,-0.007 -0.0291,0 -0.0362,0.0145 -0.0362,0.0289 0,0.0217 0.007,0.029 0.0362,0.029 0.0288,0 0.0434,-0.0145 0.0434,-0.0362 z m -0.22437,-0.029 c 0,-0.0145 0.0145,-0.0217 0.0434,-0.0145 0.0217,0.007 0.0291,0.0145 0.0291,0.029 0,0.0145 -0.007,0.0217 -0.0146,0.0217 -0.0146,0.007 -0.0217,0.007 -0.0288,0 -0.0146,0 -0.0217,-0.007 -0.0291,-0.0145 -0.007,-0.007 -0.007,-0.0145 0,-0.0217 z m 0.31829,-0.0145 c 0.0217,0 0.0362,0.007 0.0362,0.0217 0,0.0145 -0.007,0.0289 -0.0288,0.0362 -0.0145,0 -0.0217,0 -0.0291,0 -0.007,0 -0.0143,-0.0145 -0.0143,-0.0289 0,-0.0145 0.007,-0.0217 0.036,-0.029 z m 0.47758,-2.77088 c 0.32543,0 0.62944,0.0796 0.91149,0.23152 0.2749,0.15914 0.49927,0.36896 0.65854,0.62941 0.15902,0.2749 0.2458,0.57878 0.2458,0.90432 0,0.40516 -0.11562,0.75965 -0.33999,1.07797 -0.22436,0.31834 -0.51355,0.53538 -0.87524,0.65114 -0.0437,0.0145 -0.0725,0.007 -0.0942,-0.0145 -0.0217,-0.0145 -0.0288,-0.0434 -0.0288,-0.0723 v -0.60772 c 0,-0.15193 -0.0434,-0.26046 -0.12303,-0.3328 0.17357,-0.0145 0.31115,-0.0434 0.39793,-0.0724 0.13018,-0.0434 0.23866,-0.11576 0.31115,-0.21704 0.0794,-0.12298 0.12277,-0.29662 0.12277,-0.51366 0,-0.0868 -0.0217,-0.1664 -0.0505,-0.23873 -0.0288,-0.0434 -0.0722,-0.10854 -0.13758,-0.18087 0.0145,-0.0434 0.0291,-0.10129 0.0362,-0.17365 0,-0.10128 -0.0146,-0.20979 -0.0505,-0.31832 -0.0508,-0.0145 -0.11589,0 -0.20267,0.029 -0.0579,0.0289 -0.13017,0.0579 -0.20267,0.10128 l -0.0939,0.0651 c -0.15187,-0.0434 -0.30374,-0.0651 -0.46302,-0.0651 -0.15928,0 -0.30374,0.0217 -0.44847,0.0651 l -0.0942,-0.0651 c -0.0796,-0.0434 -0.15187,-0.0724 -0.20981,-0.10128 -0.0868,-0.029 -0.15187,-0.0434 -0.19526,-0.029 -0.0434,0.10853 -0.0651,0.21704 -0.0505,0.31832 0,0.0724 0.007,0.12301 0.0288,0.1664 -0.0579,0.0724 -0.10134,0.1447 -0.13018,0.20259 -0.0291,0.0579 -0.0362,0.13745 -0.0362,0.22426 0,0.21704 0.0362,0.39068 0.11588,0.50644 0.0651,0.10128 0.16616,0.18087 0.30375,0.22426 0.0868,0.0289 0.21695,0.0579 0.39079,0.0724 -0.0654,0.0579 -0.10134,0.14468 -0.11589,0.24599 -0.0868,0.0434 -0.16643,0.0579 -0.23866,0.0434 -0.13017,-0.007 -0.22436,-0.0723 -0.28945,-0.19534 -0.0288,-0.0507 -0.0725,-0.094 -0.11589,-0.13023 -0.036,-0.0145 -0.0722,-0.0362 -0.10848,-0.0506 l -0.0505,-0.007 c -0.058,0 -0.0868,0.0145 -0.0868,0.029 0,0.0145 0.007,0.0362 0.036,0.0506 l 0.0362,0.029 c 0.0291,0.0217 0.0651,0.0506 0.10133,0.094 0.0288,0.0362 0.0505,0.0724 0.0722,0.11575 l 0.0291,0.0579 c 0.0217,0.0723 0.0651,0.13023 0.13731,0.1664 0.058,0.0362 0.12304,0.0579 0.20982,0.0651 0.0579,0.007 0.11589,0.007 0.18097,-0.007 l 0.0796,-0.007 0.007,0.44133 c 0,0.0289 -0.0146,0.0579 -0.0362,0.0723 -0.0217,0.0217 -0.0505,0.029 -0.0868,0.0145 -0.36883,-0.11576 -0.66543,-0.3328 -0.8898,-0.65114 -0.23151,-0.31832 -0.33999,-0.67281 -0.33999,-1.07797 0,-0.32554 0.0722,-0.62217 0.23151,-0.89709 0.15187,-0.26768 0.36169,-0.4775 0.63659,-0.63664 0.26776,-0.15195 0.5715,-0.23152 0.90435,-0.23152 z m -1.07077,2.49595 c 0.007,-0.007 0.0217,-0.007 0.0362,0.007 0.0143,0.0145 0.0143,0.029 0.007,0.0362 -0.0145,0.0145 -0.0217,0.007 -0.0362,-0.007 -0.0143,-0.0145 -0.0217,-0.0217 -0.007,-0.0362 z m -0.0796,-0.0579 c 0.007,-0.007 0.0217,-0.007 0.0362,0 0.0146,0.007 0.0146,0.0145 0.0146,0.0289 -0.007,0.0145 -0.0217,0.0145 -0.0362,0 -0.0146,-0.007 -0.0217,-0.0145 -0.0146,-0.0289 z m 0.23892,0.2532 c 0,0 0.007,0 0.0217,0 0.007,0 0.0143,0.007 0.0217,0.0145 0.007,0.007 0.0143,0.0145 0.0143,0.0217 0,0.0145 0,0.0217 0,0.0217 -0.0143,0.0145 -0.036,0.0145 -0.0505,-0.007 -0.0145,-0.007 -0.0145,-0.0145 -0.0145,-0.0289 0,-0.007 0,-0.0145 0.007,-0.0217 z m -0.0868,-0.10128 c 0.007,0 0.0143,0 0.0217,0 0.007,0 0.0143,0.007 0.0217,0.0145 0.0143,0.0217 0.0143,0.0362 0,0.0434 -0.007,0.007 -0.0146,0.007 -0.0217,0 -0.007,0 -0.0146,-0.007 -0.0217,-0.0145 -0.0145,-0.0217 -0.0145,-0.0362 0,-0.0434 z"
       fill="#ffffff"
       id="path18"
       style="stroke-width:0.264583" />
  </g>
</svg>
