<?xml version="1.0" encoding="UTF-8" standalone="no"?>
<!-- Created with Inkscape (http://www.inkscape.org/) -->

<svg
   width="3.2409699mm"
   height="3.24102mm"
   viewBox="0 0 3.2409699 3.24102"
   version="1.1"
   id="svg295"
   inkscape:version="1.2.1 (9c6d41e410, 2022-07-14)"
   sodipodi:docname="instagram.svg"
   xmlns:inkscape="http://www.inkscape.org/namespaces/inkscape"
   xmlns:sodipodi="http://sodipodi.sourceforge.net/DTD/sodipodi-0.dtd"
   xmlns="http://www.w3.org/2000/svg"
   xmlns:svg="http://www.w3.org/2000/svg">
  <sodipodi:namedview
     id="namedview297"
     pagecolor="#ffffff"
     bordercolor="#666666"
     borderopacity="1.0"
     inkscape:showpageshadow="2"
     inkscape:pageopacity="0.0"
     inkscape:pagecheckerboard="0"
     inkscape:deskcolor="#d1d1d1"
     inkscape:document-units="mm"
     showgrid="false"
     inkscape:zoom="0.70733726"
     inkscape:cx="-135.72026"
     inkscape:cy="121.58274"
     inkscape:window-width="1920"
     inkscape:window-height="1030"
     inkscape:window-x="0"
     inkscape:window-y="0"
     inkscape:window-maximized="1"
     inkscape:current-layer="layer1" />
  <defs
     id="defs292" />
  <g
     inkscape:label="Layer 1"
     inkscape:groupmode="layer"
     id="layer1"
     transform="translate(-140.89449,-116.20677)">
    <path
       d="m 142.51511,116.99548 c 0.1447,0 0.28215,0.0434 0.41238,0.11575 0.13023,0.0723 0.23151,0.17362 0.30385,0.30385 0.0724,0.13023 0.11575,0.26768 0.11575,0.41238 0,0.15192 -0.0434,0.2894 -0.11575,0.4196 -0.0723,0.13023 -0.17362,0.23151 -0.30385,0.30387 -0.13023,0.0723 -0.26768,0.10851 -0.41238,0.10851 -0.15192,0 -0.2894,-0.0362 -0.4196,-0.10851 -0.13023,-0.0724 -0.23151,-0.17364 -0.30388,-0.30387 -0.0723,-0.1302 -0.1085,-0.26768 -0.1085,-0.4196 0,-0.1447 0.0362,-0.28215 0.1085,-0.41238 0.0724,-0.13023 0.17365,-0.23151 0.30388,-0.30385 0.1302,-0.0724 0.26768,-0.11575 0.4196,-0.11575 z m 0,1.37458 c 0.1447,0 0.27493,-0.0506 0.38344,-0.15917 0.10128,-0.10128 0.15917,-0.23151 0.15917,-0.38343 0,-0.1447 -0.0579,-0.27493 -0.15917,-0.38344 -0.10851,-0.10128 -0.23874,-0.15917 -0.38344,-0.15917 -0.15192,0 -0.28215,0.0579 -0.38343,0.15917 -0.10853,0.10851 -0.15918,0.23874 -0.15918,0.38344 0,0.15192 0.0506,0.28215 0.15918,0.38343 0.10128,0.10853 0.23151,0.15917 0.38343,0.15917 z m 1.06349,-1.41075 c 0,-0.0507 -0.0217,-0.0941 -0.0579,-0.13748 -0.0434,-0.0362 -0.0868,-0.0579 -0.13748,-0.0579 -0.0579,0 -0.10128,0.0217 -0.13745,0.0579 -0.0434,0.0434 -0.0579,0.0868 -0.0579,0.13748 0,0.0579 0.0145,0.10128 0.0579,0.13745 0.0362,0.0434 0.0796,0.0579 0.13745,0.0579 0.0507,0 0.0941,-0.0145 0.13023,-0.0579 0.0362,-0.0362 0.0579,-0.0796 0.0651,-0.13745 z m 0.54986,0.19531 c 0,0.13748 0.007,0.36174 0.007,0.67284 0,0.31832 -0.007,0.5426 -0.0145,0.68006 -0.007,0.13745 -0.0289,0.2532 -0.0579,0.35451 -0.0434,0.12298 -0.11576,0.23151 -0.20259,0.31832 -0.0868,0.0868 -0.19532,0.15193 -0.31107,0.19534 -0.10131,0.0362 -0.22429,0.0579 -0.36174,0.0651 -0.13748,0.007 -0.36174,0.007 -0.67284,0.007 -0.31832,0 -0.54261,0 -0.68006,-0.007 -0.13745,-0.007 -0.2532,-0.0289 -0.35451,-0.0724 -0.12298,-0.0362 -0.23151,-0.10128 -0.31832,-0.18809 -0.0868,-0.0868 -0.15193,-0.19534 -0.19534,-0.31832 -0.0362,-0.10131 -0.0579,-0.21706 -0.0651,-0.35451 -0.007,-0.13746 -0.007,-0.36174 -0.007,-0.68006 0,-0.3111 0,-0.53536 0.007,-0.67284 0.007,-0.13745 0.029,-0.26043 0.0651,-0.36174 0.0434,-0.11575 0.10853,-0.22426 0.19534,-0.31107 0.0868,-0.0868 0.19534,-0.15917 0.31832,-0.20259 0.10131,-0.0289 0.21706,-0.0506 0.35451,-0.0579 0.13745,-0.007 0.36174,-0.0145 0.68006,-0.0145 0.3111,0 0.53536,0.007 0.67284,0.0145 0.13745,0.007 0.26043,0.0289 0.36174,0.0579 0.11575,0.0434 0.22426,0.11576 0.31107,0.20259 0.0868,0.0868 0.15917,0.19532 0.20259,0.31107 0.0289,0.10131 0.0506,0.22429 0.0651,0.36174 z m -0.34726,1.62782 c 0.0289,-0.0796 0.0434,-0.20981 0.0579,-0.39068 0,-0.10128 0.007,-0.25321 0.007,-0.44855 v -0.23151 c 0,-0.19534 -0.007,-0.34726 -0.007,-0.44855 -0.0145,-0.18087 -0.0289,-0.31109 -0.0579,-0.39068 -0.0579,-0.14467 -0.16643,-0.25321 -0.3111,-0.3111 -0.0796,-0.0289 -0.20982,-0.0434 -0.39069,-0.0579 -0.1085,0 -0.26045,-0.007 -0.44854,-0.007 h -0.23151 c -0.19535,0 -0.34727,0.007 -0.44855,0.007 -0.18087,0.0145 -0.3111,0.0289 -0.39069,0.0579 -0.15192,0.0579 -0.2532,0.16643 -0.31109,0.3111 -0.0289,0.0796 -0.0506,0.20981 -0.0579,0.39068 -0.007,0.10851 -0.007,0.26046 -0.007,0.44855 v 0.23151 c 0,0.19534 0,0.34727 0.007,0.44855 0.007,0.18087 0.029,0.3111 0.0579,0.39068 0.0579,0.15193 0.16642,0.25321 0.31109,0.3111 0.0796,0.0289 0.20982,0.0506 0.39069,0.0579 0.10128,0.007 0.2532,0.007 0.44855,0.007 h 0.23151 c 0.19534,0 0.34726,0 0.44854,-0.007 0.18087,-0.007 0.3111,-0.0289 0.39069,-0.0579 0.14467,-0.0579 0.2532,-0.16642 0.3111,-0.3111 z"
       fill="#ffffff"
       id="path6"
       style="stroke-width:0.264583" />
  </g>
</svg>
