<?xml version="1.0" encoding="UTF-8" standalone="no"?>
<!-- Created with Inkscape (http://www.inkscape.org/) -->

<svg
   width="3.7042mm"
   height="3.0101399mm"
   viewBox="0 0 3.7042 3.0101399"
   version="1.1"
   id="svg453"
   inkscape:version="1.2.1 (9c6d41e410, 2022-07-14)"
   sodipodi:docname="twitter.svg"
   xmlns:inkscape="http://www.inkscape.org/namespaces/inkscape"
   xmlns:sodipodi="http://sodipodi.sourceforge.net/DTD/sodipodi-0.dtd"
   xmlns="http://www.w3.org/2000/svg"
   xmlns:svg="http://www.w3.org/2000/svg">
  <sodipodi:namedview
     id="namedview455"
     pagecolor="#ffffff"
     bordercolor="#666666"
     borderopacity="1.0"
     inkscape:showpageshadow="2"
     inkscape:pageopacity="0.0"
     inkscape:pagecheckerboard="0"
     inkscape:deskcolor="#d1d1d1"
     inkscape:document-units="mm"
     showgrid="false"
     inkscape:zoom="0.70733726"
     inkscape:cx="-178.13285"
     inkscape:cy="-267.19927"
     inkscape:window-width="1920"
     inkscape:window-height="1030"
     inkscape:window-x="0"
     inkscape:window-y="0"
     inkscape:window-maximized="1"
     inkscape:current-layer="layer1" />
  <defs
     id="defs450" />
  <g
     inkscape:label="Layer 1"
     inkscape:groupmode="layer"
     id="layer1"
     transform="translate(-152.25871,-219.18789)">
    <path
       d="m 155.57953,219.94028 c 0.14473,-0.10851 0.2749,-0.23874 0.38338,-0.39791 -0.14472,0.0651 -0.28945,0.10853 -0.43418,0.123 0.15928,-0.10128 0.2749,-0.23876 0.33285,-0.41963 -0.15187,0.0868 -0.31115,0.15195 -0.48472,0.18087 -0.0722,-0.0723 -0.15901,-0.1302 -0.25321,-0.17362 -0.0939,-0.0434 -0.19526,-0.0651 -0.30374,-0.0651 -0.13758,0 -0.26061,0.0362 -0.37623,0.10128 -0.11589,0.0724 -0.20982,0.1664 -0.27491,0.28215 -0.0725,0.11576 -0.10133,0.24599 -0.10133,0.37621 0,0.0579 0,0.11576 0.0145,0.17362 -0.31115,-0.0144 -0.6006,-0.0868 -0.87551,-0.23151 -0.2749,-0.13745 -0.49927,-0.32554 -0.68738,-0.5643 -0.0722,0.12301 -0.10848,0.25323 -0.10848,0.38343 0,0.13023 0.0291,0.25324 0.0942,0.36174 0.0577,0.11576 0.14473,0.20259 0.2458,0.27493 -0.12277,0 -0.23866,-0.0362 -0.33999,-0.10128 v 0.0145 c 0,0.18087 0.0579,0.34002 0.17356,0.4775 0.11589,0.14467 0.26062,0.23151 0.43418,0.26767 -0.0722,0.0145 -0.13731,0.0217 -0.20267,0.0217 -0.0434,0 -0.0939,0 -0.13731,-0.007 0.0434,0.15192 0.13017,0.2749 0.26035,0.37618 0.13017,0.10131 0.2749,0.1447 0.44873,0.1447 -0.28231,0.21704 -0.60061,0.32557 -0.94774,0.32557 -0.0725,0 -0.13044,0 -0.18097,-0.007 0.34713,0.23151 0.73792,0.34005 1.16469,0.34005 0.44133,0 0.83212,-0.10854 1.17925,-0.34005 0.31115,-0.20256 0.55721,-0.47024 0.73078,-0.81751 0.16642,-0.31832 0.25321,-0.65836 0.25321,-1.00563 0,-0.0434 -0.007,-0.0723 -0.007,-0.0941 z"
       fill="#ffffff"
       id="path14"
       style="stroke-width:0.264583" />
  </g>
</svg>
